HIERARCHY
ROOT Hips
{
    OFFSET   0.000000   0.000000   0.000000
    CHANNELS 6 Xposition Yposition Zposition Zrotation Xrotation Yrotation
    JOINT Chest
    {
        OFFSET   0.000000   8.007230   0.000000
        CHANNELS 3 Zrotation Xrotation Yrotation
        JOINT Chest2
        {
            OFFSET   0.000000  22.077100   0.000000
            CHANNELS 3 Zrotation Xrotation Yrotation
            JOINT Neck
            {
                OFFSET   0.000000  23.255100   0.000000
                CHANNELS 3 Zrotation Xrotation Yrotation
                JOINT Head
                {
                    OFFSET   0.000000  14.370100   1.956600
                    CHANNELS 3 Zrotation Xrotation Yrotation
                    End Site
                    {
                        OFFSET   0.000000  19.566000   0.000000
                    }
                }
            }
            JOINT LeftCollar
            {
                OFFSET   3.911900  19.017000  -0.467063
                CHANNELS 3 Zrotation Xrotation Yrotation
                JOINT LeftShoulder
                {
                    OFFSET  10.383700   0.000000   0.000000
                    CHANNELS 3 Zrotation Xrotation Yrotation
                    JOINT LeftElbow
                    {
                        OFFSET  26.662100   0.001193   0.000980
                        CHANNELS 3 Zrotation Xrotation Yrotation
                        JOINT LeftWrist
                        {
                            OFFSET  28.869000  -0.000059  -0.000082
                            CHANNELS 3 Zrotation Xrotation Yrotation
                            JOINT LeftFinger0
                            {
                                OFFSET   2.044650  -2.323450   3.252850
                                CHANNELS 3 Zrotation Xrotation Yrotation
                                JOINT LeftFinger01
                                {
                                    OFFSET   3.088130   0.000000   0.000000
                                    CHANNELS 3 Zrotation Xrotation Yrotation
                                    JOINT LeftFinger02
                                    {
                                        OFFSET   2.639460   0.000000   0.000000
                                        CHANNELS 3 Zrotation Xrotation Yrotation
                                        End Site
                                        {
                                            OFFSET   2.582190   0.000000   0.000000
                                        }
                                    }
                                }
                            }
                            JOINT LeftFinger1
                            {
                                OFFSET   8.364480   0.000000   3.252850
                                CHANNELS 3 Zrotation Xrotation Yrotation
                                JOINT LeftFinger11
                                {
                                    OFFSET   4.646930   0.000000   0.000000
                                    CHANNELS 3 Zrotation Xrotation Yrotation
                                    JOINT LeftFinger12
                                    {
                                        OFFSET   2.323470   0.000000   0.000000
                                        CHANNELS 3 Zrotation Xrotation Yrotation
                                        End Site
                                        {
                                            OFFSET   2.273050   0.000000   0.000000
                                        }
                                    }
                                }
                            }
                            JOINT LeftFinger2
                            {
                                OFFSET   8.364490   0.000016   1.078090
                                CHANNELS 3 Zrotation Xrotation Yrotation
                                JOINT LeftFinger21
                                {
                                    OFFSET   5.111610   0.000000   0.000000
                                    CHANNELS 3 Zrotation Xrotation Yrotation
                                    JOINT LeftFinger22
                                    {
                                        OFFSET   2.788150   0.000016   0.000000
                                        CHANNELS 3 Zrotation Xrotation Yrotation
                                        End Site
                                        {
                                            OFFSET   2.727660   0.000000   0.000000
                                        }
                                    }
                                }
                            }
                            JOINT LeftFinger3
                            {
                                OFFSET   7.899780   0.000015  -1.078090
                                CHANNELS 3 Zrotation Xrotation Yrotation
                                JOINT LeftFinger31
                                {
                                    OFFSET   4.646930   0.000000   0.000000
                                    CHANNELS 3 Zrotation Xrotation Yrotation
                                    JOINT LeftFinger32
                                    {
                                        OFFSET   2.323470   0.000000   0.000000
                                        CHANNELS 3 Zrotation Xrotation Yrotation
                                        End Site
                                        {
                                            OFFSET   2.273050   0.000000   0.000000
                                        }
                                    }
                                }
                            }
                            JOINT LeftFinger4
                            {
                                OFFSET   7.435090   0.000000  -3.252850
                                CHANNELS 3 Zrotation Xrotation Yrotation
                                JOINT LeftFinger41
                                {
                                    OFFSET   3.717550   0.000000   0.000000
                                    CHANNELS 3 Zrotation Xrotation Yrotation
                                    JOINT LeftFinger42
                                    {
                                        OFFSET   1.858770   0.000000   0.000000
                                        CHANNELS 3 Zrotation Xrotation Yrotation
                                        End Site
                                        {
                                            OFFSET   1.818440   0.000000   0.000000
                                        }
                                    }
                                }
                            }
                        }
                    }
                }
            }
            JOINT RightCollar
            {
                OFFSET  -3.911910  19.017000  -0.467062
                CHANNELS 3 Zrotation Xrotation Yrotation
                JOINT RightShoulder
                {
                    OFFSET -10.383700   0.000014   0.000000
                    CHANNELS 3 Zrotation Xrotation Yrotation
                    JOINT RightElbow
                    {
                        OFFSET -26.662100   0.001225   0.001091
                        CHANNELS 3 Zrotation Xrotation Yrotation
                        JOINT RightWrist
                        {
                            OFFSET -28.869000  -0.000020  -0.000085
                            CHANNELS 3 Zrotation Xrotation Yrotation
                            JOINT RightFinger0
                            {
                                OFFSET  -2.044650  -2.323490   3.252850
                                CHANNELS 3 Zrotation Xrotation Yrotation
                                JOINT RightFinger01
                                {
                                    OFFSET  -3.088130   0.000000   0.000000
                                    CHANNELS 3 Zrotation Xrotation Yrotation
                                    JOINT RightFinger02
                                    {
                                        OFFSET  -2.639460   0.000000   0.000000
                                        CHANNELS 3 Zrotation Xrotation Yrotation
                                        End Site
                                        {
                                            OFFSET  -2.582190   0.000000   0.000000
                                        }
                                    }
                                }
                            }
                            JOINT RightFinger1
                            {
                                OFFSET  -8.364480   0.000000   3.252850
                                CHANNELS 3 Zrotation Xrotation Yrotation
                                JOINT RightFinger11
                                {
                                    OFFSET  -4.646930   0.000000   0.000000
                                    CHANNELS 3 Zrotation Xrotation Yrotation
                                    JOINT RightFinger12
                                    {
                                        OFFSET  -2.323470   0.000000   0.000000
                                        CHANNELS 3 Zrotation Xrotation Yrotation
                                        End Site
                                        {
                                            OFFSET  -2.273050   0.000000   0.000000
                                        }
                                    }
                                }
                            }
                            JOINT RightFinger2
                            {
                                OFFSET  -8.364480   0.000000   1.078090
                                CHANNELS 3 Zrotation Xrotation Yrotation
                                JOINT RightFinger21
                                {
                                    OFFSET  -5.111620   0.000000   0.000000
                                    CHANNELS 3 Zrotation Xrotation Yrotation
                                    JOINT RightFinger22
                                    {
                                        OFFSET  -2.788160   0.000000   0.000000
                                        CHANNELS 3 Zrotation Xrotation Yrotation
                                        End Site
                                        {
                                            OFFSET  -2.727660   0.000000   0.000000
                                        }
                                    }
                                }
                            }
                            JOINT RightFinger3
                            {
                                OFFSET  -7.899780   0.000000  -1.078090
                                CHANNELS 3 Zrotation Xrotation Yrotation
                                JOINT RightFinger31
                                {
                                    OFFSET  -4.646930   0.000000   0.000000
                                    CHANNELS 3 Zrotation Xrotation Yrotation
                                    JOINT RightFinger32
                                    {
                                        OFFSET  -2.323470   0.000000   0.000000
                                        CHANNELS 3 Zrotation Xrotation Yrotation
                                        End Site
                                        {
                                            OFFSET  -2.273050   0.000000   0.000000
                                        }
                                    }
                                }
                            }
                            JOINT RightFinger4
                            {
                                OFFSET  -7.435090   0.000000  -3.252850
                                CHANNELS 3 Zrotation Xrotation Yrotation
                                JOINT RightFinger41
                                {
                                    OFFSET  -3.717550   0.000000   0.000000
                                    CHANNELS 3 Zrotation Xrotation Yrotation
                                    JOINT RightFinger42
                                    {
                                        OFFSET  -1.858760   0.000000   0.000000
                                        CHANNELS 3 Zrotation Xrotation Yrotation
                                        End Site
                                        {
                                            OFFSET  -1.818440   0.000000   0.000000
                                        }
                                    }
                                }
                            }
                        }
                    }
                }
            }
        }
    }
    JOINT LeftHip
    {
        OFFSET   9.783030   0.000000   0.000000
        CHANNELS 3 Zrotation Xrotation Yrotation
        JOINT LeftKnee
        {
            OFFSET   0.000063 -41.789100   0.000608
            CHANNELS 3 Zrotation Xrotation Yrotation
            JOINT LeftAnkle
            {
                OFFSET   0.000048 -41.133200  -0.000184
                CHANNELS 3 Zrotation Xrotation Yrotation
                JOINT LeftToe
                {
                    OFFSET   0.000000  -6.358960  14.674500
                    CHANNELS 3 Zrotation Xrotation Yrotation
                    End Site
                    {
                        OFFSET   0.000000   0.000000   3.913200
                    }
                }
            }
        }
    }
    JOINT RightHip
    {
        OFFSET  -9.783030   0.000000   0.000000
        CHANNELS 3 Zrotation Xrotation Yrotation
        JOINT RightKnee
        {
            OFFSET   0.000071 -41.789100   0.001239
            CHANNELS 3 Zrotation Xrotation Yrotation
            JOINT RightAnkle
            {
                OFFSET   0.000037 -41.133200  -0.000166
                CHANNELS 3 Zrotation Xrotation Yrotation
                JOINT RightToe
                {
                    OFFSET   0.000000  -6.358960  14.674500
                    CHANNELS 3 Zrotation Xrotation Yrotation
                    End Site
                    {
                        OFFSET   0.000000   0.000000   3.913200
                    }
                }
            }
        }
    }
}
MOTION
Frames: 4
Frame Time:   0.016667
  1.953350  89.485200   2.171360   1.845000 -19.754900  15.185000  -0.105410  11.084500   4.786070  -1.208850  22.119300   9.878670   1.047440  -3.840770   0.073412   1.742120  -7.780240 -12.152300 -10.570000  -8.124960  -3.292890 -68.788000  23.221800  -5.485830   0.522078 -11.399500 -14.337700  21.101900 -21.621200  13.206700  41.286300  38.182800 -65.380800 -34.172100   0.004677   0.004845 -12.086100   0.001134   0.004804 -33.912900   5.784960  -8.526460 -28.101400   0.005229  -0.001070 -19.671000   0.004663   0.000366 -28.709900  -1.952330   3.559330 -40.895900   0.001202  -0.002934 -27.236700   0.000081   0.003280 -28.723000  -1.953040   3.558950 -42.439100  -0.000639  -0.001543 -28.264500  -0.003922   0.004773 -34.366100  -2.293190   3.349650 -51.649700  -0.002175  -0.003898 -34.398700  -0.002502   0.000979   8.429930  -3.803950  12.766700  38.764500  16.607400  51.781100 -23.314700 -41.094500  91.992000  17.897800 -41.259900  23.285700 -28.475900  63.538000  70.944900  82.104800  -0.001537   0.000659  48.021800  -0.000199   0.001836  83.594700   4.965300   0.553351  68.415100  -0.004323   0.005658  51.311300   0.003675   0.001036  84.699200  -0.001091   0.000337  84.699300   0.004380   0.001232  63.524400   0.000490  -0.001818  88.995800  -4.998320  -0.091685  92.283900   0.003537   0.000288  69.212900   0.001646  -0.002767  88.983700  -9.997040  -0.181960 110.000000  -0.004109  -0.001268  80.000000  -0.000953   0.002031   2.894740  20.339100   1.015850   0.684578   0.086565  -2.964840  -4.766850  -1.289840  -6.038220   0.000000   0.000000   0.000000   4.455310  21.709900  -7.760780  -1.772380   6.066650 -17.575100   2.253510  -8.412340  -2.013260   0.000000   0.000000   0.000000
  1.922050  89.485000   2.130760   1.586020 -19.678000  14.656300  -0.044367  11.078700   4.714720  -1.068170  22.114300   9.718950   1.005880  -3.881850   0.072938   1.672730  -7.861970 -11.826200 -10.508400  -8.096310  -3.175960 -68.771100  23.127200  -5.344810   0.383075 -11.200900 -14.135700  21.346500 -20.781000  13.116200  41.098900  37.990300 -65.324500 -34.249700   0.004791   0.004841 -12.124900   0.001184   0.005046 -34.046400   5.872220  -8.591540 -28.220800   0.005229  -0.001067 -19.754500   0.004664   0.000363 -28.715900  -1.958740   3.570290 -41.165200   0.001202  -0.002934 -27.416000   0.000083   0.003272 -28.730600  -1.959550   3.569880 -42.577600  -0.000639  -0.001544 -28.356700  -0.003922   0.004775 -34.416600  -2.303250   3.357680 -51.725600  -0.002175  -0.003899 -34.449200  -0.002503   0.000979   8.489910  -3.842800  12.807700  38.616300  16.759800  51.617700 -23.235100 -41.164600  92.333200  18.096900 -41.004500  23.462300 -28.517000  63.606100  70.927400  82.090900  -0.001616   0.000715  48.012500  -0.000217   0.001873  83.575000   4.964980   0.556647  68.399200  -0.004207   0.005950  51.299400   0.003890   0.001207  84.722800  -0.001188   0.000500  84.722800   0.004599   0.001341  63.542100   0.000621  -0.001867  88.995800  -4.998290  -0.091824  92.329600   0.003430   0.000392  69.247100   0.001647  -0.002981  88.983600  -9.997000  -0.182134 110.000000  -0.004242  -0.001303  80.000000  -0.000981   0.002102   2.955100  20.256600   1.090610   0.671854   0.045823  -2.740780  -4.731580  -1.301590  -5.864580   0.000000   0.000000   0.000000   4.487120  21.558300  -7.704650  -1.821140   5.949380 -17.379500   2.245570  -8.244540  -1.769600   0.000000   0.000000   0.000000
  1.893690  89.484700   2.093370   1.326310 -19.596600  14.121200   0.018928  11.062800   4.639010  -0.920759  22.089100   9.549210   0.973107  -3.900440   0.072534   1.619380  -7.902290 -11.497200 -10.449700  -8.059360  -3.073500 -68.798300  22.926300  -5.175900   0.249379 -10.960400 -14.004000  21.593400 -20.037900  13.037800  40.706400  37.636200 -65.179800 -34.374400   0.004905   0.004839 -12.187200   0.001252   0.005290 -34.268900   5.920750  -8.609050 -28.403100   0.005228  -0.001060 -19.882100   0.004665   0.000361 -28.723700  -1.980710   3.609250 -41.585500   0.001202  -0.002935 -27.695900   0.000086   0.003265 -28.737400  -1.981580   3.608810 -42.811400  -0.000638  -0.001548 -28.512400  -0.003923   0.004775 -34.511600  -2.334300   3.390240 -51.870000  -0.002175  -0.003901 -34.545400  -0.002504   0.000980   8.546290  -3.869040  12.840500  38.399400  16.967900  51.469500 -23.192600 -41.305800  92.636000  18.254700 -40.713200  23.624200 -28.593100  63.623700  70.918000  82.075000  -0.001689   0.000773  48.001900  -0.000234   0.001911  83.536800   4.964640   0.562057  68.368300  -0.004088   0.006244  51.276200   0.004105   0.001381  84.729200  -0.001286   0.000664  84.729200   0.004821   0.001454  63.546900   0.000757  -0.001912  88.995800  -4.998260  -0.091958  92.348800   0.003326   0.000501  69.261600   0.001653  -0.003198  88.983600  -9.996960  -0.182303 110.000000  -0.004372  -0.001337  80.000000  -0.001008   0.002169   3.019040  20.180300   1.169460   0.653324   0.003493  -2.498960  -4.695970  -1.318210  -5.705490   0.000000   0.000000   0.000000   4.518030  21.403300  -7.633440  -1.867880   5.840460 -17.177900   2.239490  -8.083440  -1.539010  -0.000000   0.000000  -0.000000
  1.879010  89.484500   2.060940   1.081350 -19.520100  13.587800   0.079957  11.040500   4.564970  -0.777899  22.050900   9.383140   0.950433  -3.896330   0.072210   1.583810  -7.896420 -11.170800 -10.364300  -7.989270  -3.001910 -68.865100  22.597600  -5.010400   0.123922 -10.730200 -13.891800  21.608300 -19.504500  12.886700  40.324000  37.243300 -64.925900 -34.485400   0.005023   0.004842 -12.242700   0.001340   0.005536 -34.433600   5.919800  -8.567770 -28.535500   0.005226  -0.001051 -19.974800   0.004666   0.000360 -28.725400  -2.034940   3.707300 -41.900600   0.001202  -0.002938 -27.905700   0.000084   0.003267 -28.731700  -2.035570   3.706950 -43.053700  -0.000638  -0.001553 -28.673700  -0.003925   0.004769 -34.639600  -2.406830   3.476930 -52.068300  -0.002175  -0.003901 -34.677500  -0.002508   0.000984   8.609990  -3.879310  12.848000  38.170300  17.208100  51.313700 -23.166000 -41.458400  92.961500  18.326300 -40.608100  23.723500 -28.437300  63.463200  70.716900  82.072700  -0.001762   0.000834  48.000300  -0.000244   0.001947  83.491000   4.964310   0.566452  68.330900  -0.003974   0.006537  51.248100   0.004311   0.001561  84.733300  -0.001390   0.000838  84.733300   0.005040   0.001564  63.550000   0.000913  -0.001949  88.995800  -4.998230  -0.092085  92.352800   0.003220   0.000603  69.264700   0.001664  -0.003414  88.983600  -9.996920  -0.182470 110.000000  -0.004489  -0.001376  80.000000  -0.001039   0.002230   3.060720  20.099700   1.252250   0.642692   0.001689  -2.220810  -4.653810  -1.361040  -5.580380   0.000000   0.000000   0.000000   4.526570  21.267200  -7.548350  -1.903040   5.732170 -16.953000   2.239100  -7.934150  -1.339150  -0.000000   0.000000   0.000000
